<?xml version="1.0" encoding="UTF-8"?>
<svg width="52px" height="52px" viewBox="0 0 52 52" version="1.1" xmlns="http://www.w3.org/2000/svg" xmlns:xlink="http://www.w3.org/1999/xlink">
    <!-- Generator: Sketch 49.2 (51160) - http://www.bohemiancoding.com/sketch -->
    <title>二维码</title>
    <desc>Created with Sketch.</desc>
    <defs></defs>
    <g id="设计" stroke="none" stroke-width="1" fill="none" fill-rule="evenodd">
        <g id="Pc-登录" transform="translate(-615.000000, -158.000000)">
            <g id="二维码" transform="translate(615.000000, 158.000000)">
                <g id="Group">
                    <rect id="Rectangle" stroke="#666666" stroke-width="4" x="2" y="2" width="16" height="16"></rect>
                    <rect id="Rectangle" fill="#666666" x="7" y="7" width="6" height="6"></rect>
                </g>
                <g id="Group" transform="translate(32.000000, 0.000000)">
                    <rect id="Rectangle" stroke="#666666" stroke-width="4" x="2" y="2" width="16" height="16"></rect>
                    <rect id="Rectangle" fill="#666666" x="7" y="7" width="6" height="6"></rect>
                </g>
                <g id="Group" transform="translate(0.000000, 32.000000)">
                    <rect id="Rectangle" stroke="#666666" stroke-width="4" x="2" y="2" width="16" height="16"></rect>
                    <rect id="Rectangle" fill="#666666" x="7" y="7" width="6" height="6"></rect>
                </g>
                <rect id="Rectangle-2" fill="#666666" x="0" y="24" width="8" height="4"></rect>
                <rect id="Rectangle-2-Copy-2" fill="#666666" x="12" y="24" width="8" height="4"></rect>
                <rect id="Rectangle-2-Copy-3" fill="#666666" x="16" y="28" width="4" height="4"></rect>
                <rect id="Rectangle-2-Copy-5" fill="#666666" x="24" y="16" width="4" height="4"></rect>
                <rect id="Rectangle-2-Copy-6" fill="#666666" x="24" y="8" width="4" height="4"></rect>
                <rect id="Rectangle-2-Copy-7" fill="#666666" x="24" y="0" width="4" height="4"></rect>
                <rect id="Rectangle-2-Copy-4" fill="#666666" x="20" y="20" width="8" height="8"></rect>
                <rect id="Rectangle-2-Copy" fill="#666666" x="4" y="28" width="8" height="4"></rect>
                <polygon id="Rectangle-11" fill="#FFFFFF" points="52 0 52 52 0 52"></polygon>
            </g>
        </g>
    </g>
</svg>